<?xml version="1.0" encoding="UTF-8"?>
<svg id="Layer_1" xmlns="http://www.w3.org/2000/svg" xmlns:xlink="http://www.w3.org/1999/xlink" version="1.1" viewBox="0 0 2000 2000">
  <!-- Generator: Adobe Illustrator 29.5.1, SVG Export Plug-In . SVG Version: 2.1.0 Build 141)  -->
  <defs>
    <style>
      .st0, .st1 {
        fill: none;
      }

      .st2 {
        fill: #c3922e;
      }

      .st3 {
        fill: #5e6c69;
        font-family: BigMoore-Italic, 'Big Moore';
        font-size: 180px;
        font-style: italic;
      }

      .st4 {
        fill: #5e6b69;
      }

      .st5 {
        fill: #79ae42;
      }

      .st1 {
        stroke: #c3922e;
        stroke-miterlimit: 10;
        stroke-width: 13px;
      }

      .st6 {
        letter-spacing: 0em;
      }

      .st7 {
        fill: url(#Dégradé_sans_nom_41);
      }

      .st8 {
        fill: url(#Dégradé_sans_nom_40);
      }

      .st9 {
        fill: url(#Dégradé_sans_nom_39);
      }

      .st10 {
        fill: url(#Dégradé_sans_nom_38);
      }

      .st11 {
        letter-spacing: -.09em;
      }

      .st12 {
        letter-spacing: -.06em;
      }
    </style>
    <linearGradient id="Dégradé_sans_nom_39" data-name="Dégradé sans nom 39" x1="-8022.28" y1="2022.38" x2="-8144.29" y2="2060.48" gradientTransform="translate(5060.71 -55.37) scale(.49)" gradientUnits="userSpaceOnUse">
      <stop offset="0" stop-color="#79ae42"/>
      <stop offset="1" stop-color="#79ae42"/>
    </linearGradient>
    <linearGradient id="Dégradé_sans_nom_40" data-name="Dégradé sans nom 40" x1="-8098.99" y1="1994.49" x2="-8102.82" y2="2082.28" gradientTransform="translate(5060.71 -55.37) scale(.49)" gradientUnits="userSpaceOnUse">
      <stop offset="0" stop-color="#79ae42"/>
      <stop offset="1" stop-color="#79ae42"/>
    </linearGradient>
    <linearGradient id="Dégradé_sans_nom_38" data-name="Dégradé sans nom 38" x1="912.12" y1="941.79" x2="995.27" y2="974.36" gradientUnits="userSpaceOnUse">
      <stop offset="0" stop-color="#79ae42"/>
      <stop offset="1" stop-color="#79ae42"/>
    </linearGradient>
    <linearGradient id="Dégradé_sans_nom_41" data-name="Dégradé sans nom 41" x1="-8307.35" y1="2005.97" x2="-8310.83" y2="2054.83" gradientTransform="translate(5060.71 -55.37) scale(.49)" gradientUnits="userSpaceOnUse">
      <stop offset="0" stop-color="#79ae42"/>
      <stop offset="1" stop-color="#79ae42"/>
    </linearGradient>
  </defs>
  <g>
    <g>
      <path class="st4" d="M771.84,1199.86l-18.74,58.77h-8.41l-15.29-46.93-15.29,46.93h-8.57l-18.74-58.77h8.25l15.13,47.77,15.77-47.77h7.37l15.45,48.02,15.45-48.02h7.61Z"/>
      <path class="st4" d="M850.79,1243.94h-29.79l-6.17,14.69h-8.25l25.38-58.77h7.93l25.46,58.77h-8.41l-6.17-14.69ZM847.99,1237.22l-12.09-28.8-12.09,28.8h24.18Z"/>
      <path class="st4" d="M917.25,1207.16h-19.22v-7.3h46.36v7.3h-19.22v51.47h-7.93v-51.47Z"/>
      <path class="st4" d="M997.44,1255.4c-4.51-2.6-8.05-6.18-10.61-10.75-2.56-4.56-3.84-9.7-3.84-15.41s1.28-10.84,3.84-15.41c2.56-4.56,6.11-8.14,10.65-10.75,4.54-2.6,9.61-3.9,15.21-3.9,4.38,0,8.38.77,12.01,2.31,3.63,1.54,6.73,3.82,9.29,6.84l-5.2,5.29c-4.22-4.65-9.48-6.97-15.77-6.97-4.16,0-7.93.98-11.29,2.94-3.36,1.96-5.99,4.66-7.89,8.1-1.9,3.44-2.84,7.29-2.84,11.54s.95,8.1,2.84,11.54c1.89,3.44,4.52,6.14,7.89,8.1,3.36,1.96,7.13,2.94,11.29,2.94,6.25,0,11.5-2.35,15.77-7.05l5.2,5.29c-2.56,3.02-5.67,5.32-9.33,6.88-3.66,1.57-7.67,2.35-12.05,2.35-5.61,0-10.66-1.3-15.17-3.9Z"/>
      <path class="st4" d="M1128.88,1199.86v58.77h-8.01v-26.2h-32.19v26.2h-8.01v-58.77h8.01v25.27h32.19v-25.27h8.01Z"/>
      <path class="st4" d="M1221.61,1251.33v7.3h-40.68v-58.77h39.56v7.3h-31.55v18.05h28.11v7.14h-28.11v18.97h32.67Z"/>
      <path class="st4" d="M1273.93,1257.25c-3.92-1.37-7.01-3.15-9.25-5.33l2.96-6.55c2.13,2.02,4.87,3.65,8.21,4.91,3.34,1.26,6.77,1.89,10.29,1.89,4.64,0,8.11-.82,10.41-2.48,2.29-1.65,3.44-3.85,3.44-6.59,0-2.02-.63-3.65-1.88-4.91-1.26-1.26-2.8-2.22-4.64-2.9s-4.44-1.43-7.81-2.27c-4.22-1.06-7.62-2.13-10.21-3.19-2.59-1.06-4.8-2.7-6.65-4.91-1.84-2.21-2.76-5.19-2.76-8.94,0-3.13.79-5.96,2.36-8.48,1.57-2.52,3.96-4.53,7.17-6.05,3.2-1.51,7.18-2.27,11.93-2.27,3.31,0,6.57.45,9.77,1.34,3.2.9,5.95,2.18,8.25,3.86l-2.64,6.72c-2.35-1.57-4.86-2.76-7.53-3.57-2.67-.81-5.28-1.22-7.85-1.22-4.54,0-7.94.87-10.21,2.6-2.27,1.74-3.4,3.98-3.4,6.72,0,2.01.64,3.65,1.92,4.91,1.28,1.26,2.87,2.24,4.76,2.94,1.89.7,4.47,1.44,7.73,2.22,4.22,1.06,7.61,2.13,10.17,3.19,2.56,1.06,4.76,2.69,6.61,4.87,1.84,2.18,2.76,5.12,2.76,8.82,0,3.08-.8,5.89-2.4,8.44-1.6,2.55-4.03,4.56-7.29,6.05-3.26,1.48-7.26,2.22-12.01,2.22-4.22,0-8.29-.68-12.21-2.06Z"/>
    </g>
    <g>
      <path class="st1" d="M469.14,984.39h337.6c0-106.73,86.52-193.26,193.26-193.26s193.26,86.52,193.26,193.26h337.6"/>
      <circle class="st2" cx="1000" cy="984.39" r="11.63"/>
      <path class="st2" d="M1156.54,988.17l-48.21-1.66c-1.17-.04-2.09-1.02-2.05-2.19.04-1.12.94-2,2.05-2.05l48.21-1.66c2.09-.07,3.84,1.56,3.91,3.65.07,2.09-1.56,3.84-3.65,3.91-.08,0-.18,0-.26,0Z"/>
      <path class="st2" d="M1003.78,827.85l-1.66,48.21c-.04,1.17-1.02,2.09-2.19,2.05-1.12-.04-2-.94-2.04-2.05l-1.66-48.21c-.07-2.09,1.56-3.84,3.65-3.91,2.09-.07,3.84,1.56,3.91,3.65,0,.08,0,.18,0,.26Z"/>
      <g>
        <path class="st2" d="M923.03,848.08l15.26,27.76c.22.41.08.92-.33,1.14-.4.22-.89.08-1.12-.3l-16.41-27.1c-.43-.71-.2-1.63.51-2.06.71-.43,1.63-.2,2.06.51,0,.02.02.04.03.05Z"/>
        <path class="st2" d="M865.18,904.82l27.1,16.41c.4.24.52.76.28,1.15-.23.39-.73.52-1.12.3l-27.75-15.26c-.73-.4-.99-1.31-.59-2.04.4-.73,1.31-.99,2.04-.59.02,0,.04.02.05.03Z"/>
        <path class="st2" d="M1136.32,907.42l-27.76,15.26c-.41.22-.92.08-1.14-.33-.22-.4-.08-.89.3-1.12l27.1-16.41c.71-.43,1.63-.2,2.06.51.43.71.2,1.63-.51,2.06-.02,0-.04.02-.05.03Z"/>
        <path class="st2" d="M1079.57,849.58l-16.41,27.1c-.24.4-.76.52-1.15.28-.39-.23-.52-.73-.3-1.12l15.26-27.76c.4-.73,1.31-.99,2.04-.59.73.4.99,1.31.59,2.04,0,.02-.02.04-.03.05Z"/>
      </g>
      <path class="st2" d="M843.46,980.61l48.21,1.66c1.17.04,2.09,1.02,2.04,2.19-.04,1.12-.94,2-2.04,2.05l-48.21,1.66c-2.09.07-3.84-1.56-3.91-3.65-.07-2.09,1.56-3.84,3.65-3.91.08,0,.18,0,.26,0Z"/>
      <path class="st2" d="M929.65,941.6c6.15,3.09,12.22,6.32,18.26,9.59,3.03,1.62,6.03,3.29,9.03,4.96,3,1.67,6.02,3.31,8.99,5.02,5.96,3.4,11.95,6.76,17.86,10.26,5.93,3.46,11.86,6.91,17.73,10.47l-2.95-.05,11.84-6.76,11.9-6.64c7.94-4.42,15.96-8.69,23.95-13.02,8.04-4.23,16.08-8.47,24.2-12.58,8.12-4.1,16.26-8.16,24.54-11.97-7.55,5.11-15.24,9.97-22.96,14.78-7.72,4.82-15.51,9.5-23.3,14.18-7.85,4.59-15.66,9.24-23.55,13.74l-11.85,6.74-11.91,6.62-1.5.83-1.45-.88c-5.86-3.57-11.65-7.25-17.45-10.92-5.82-3.64-11.56-7.41-17.32-11.14-2.89-1.85-5.73-3.78-8.59-5.68-2.86-1.9-5.72-3.8-8.55-5.74-5.69-3.86-11.34-7.76-16.92-11.8Z"/>
      <path class="st1" d="M1116.22,829.98c-13.69-40.2-27.01-77.97-27.01-77.97h-178.41s-13.33,37.78-27.01,77.97c6.53-4.34,50.95-39.63,116.22-38.84,65.27-.78,109.68,34.5,116.22,38.84Z"/>
      <g>
        <line class="st1" x1="469.14" y1="1232.61" x2="661.66" y2="1232.61"/>
        <line class="st1" x1="1338.34" y1="1232.61" x2="1530.86" y2="1232.61"/>
      </g>
    </g>
  </g>
  <g id="Texte_Tea_Time">
    <text class="st3" transform="translate(507.94 1161.18)"><tspan x="0" y="0">T e a</tspan><tspan class="st11" x="364.67" y="0">	</tspan><tspan class="st12" x="396" y="0" xml:space="preserve">		</tspan><tspan class="st6" x="468" y="0">T i m e</tspan></text>
  </g>
  <g id="Tea_Leaf">
    <g id="Objet_génératif">
      <g>
        <g>
          <path class="st9" d="M1096.02,935.34c-.91,1.18-1.69,2.4-2.63,3.57-2.13,2.67-3.95,5.5-6.24,8.12-3.44,3.96-7.48,8.06-11.81,11.69-15.03,12.57-34.22,20.21-59.73,22.99-.56.06-1.09.14-1.64.2-1.62-1.43.7-1.5.82-1.59.82-.6.06-.63.33-.79.37-.22,5.58.28,2.13-1.09,2.51.26,3.53-1.6,4.1-1.68.36-.05,4.15.42,5.25.2,1.35-.27.2-1.18.66-1.39.16-.07,3.2-.48,3.77-.89s.09-1.73,1.64-2.48c.42.03,5.25-.3,4.59-.89-.28-.25-1.97.22-1.15-.89,1.05-.05,6.31.24,6.4-.5.01-.08-1.38-.55-.66-1.39.1-.12,4.42-.65,1.48-1.49-3.35-.95-3.38,1.3-3.61,1.39-.16.06-2.99-.11-3.77,0,.18-.89.54-2.09,1.31-2.77.05-.05.74.1.98-.1.64-.54,4.18-3.59,4.76-3.67.94-.13,4.29.43,5.91.2.22-.03.95-.65,1.31-.79.2-.08,1.11.08,1.31,0,.78-.3.11-.91,1.31-1.59.88-.49,3.75-1.11,3.94-1.19.97-.44.15-1.4,2.46-1.29-1.65-.18-3.26-.04-4.92-.1-.35-.71,1.74-1.13,1.97-1.29.12-.08-.12-.5,0-.59.5-.42,1.12-.23,1.31-.4,1.19-1.05.09-3.14,4.27-2.77l-6.89-.69c11.28-6.71,22.67-13.29,35.11-19.22,3.76-1.79,7.75-3.42,11.32-5.35l-5.41,8.52Z"/>
          <path class="st8" d="M1096.02,935.34l5.41-8.52c-3.58,1.93-7.56,3.56-11.32,5.35.18-.6-.71-.23-.98-.1-28.21,12.97-51.78,29.49-76.14,44.98-1.59,1.01-3.37,2.05-5.25,2.87,2.27-14.58,20.52-31.45,40.04-39.83,2.96-1.27,7.67-3.1,10.83-4.16,14.5-4.85,30.85-7.13,46.11-10.9l-3.45,3.27c-1.95,2.29-3.45,4.71-5.25,7.03Z"/>
          <path class="st5" d="M1037.28,965.66c-.78.68-1.13,1.89-1.31,2.77-1.06.14-2.37,1.04-4.43.59-1.33.65.47.71.16,1.49-1.18.23-2.02-.37-2.95.4,4.09-.3,2.08,1.15,3.94,1.29-1.55.75-1.07,2.07-1.64,2.48s-3.61.82-3.77.89c-.46.21.7,1.12-.66,1.39-1.1.22-4.89-.25-5.25-.2-.57.09-1.59,1.94-4.1,1.68,3.44,1.37-1.76.87-2.13,1.09-.27.16.49.19-.33.79-.12.08-2.44.15-.82,1.59-1.35.13-2.91.1-4.27.2-.91.06-1.87-.21-1.97-.2l.33-1.19c8.46-5.19,16.96-10.38,25.27-15.65.01.64,2.86.44,3.94.59Z"/>
          <path class="st5" d="M1054.34,957.14c1.66.06,3.27-.08,4.92.1-2.31-.11-1.49.85-2.46,1.29-.18.08-3.06.7-3.94,1.19-1.21.68-.53,1.29-1.31,1.59-.21.08-1.11-.08-1.31,0-.36.14-1.09.76-1.31.79-1.62.23-4.97-.33-5.91-.2-.58.08-4.12,3.13-4.76,3.67-.24.2-.93.05-.98.1-1.08-.15-3.92.04-3.94-.59,4.36-2.76,8.35-5.79,12.8-8.52,2.77.25,5.39.49,8.2.59Z"/>
          <path class="st2" d="M1090.12,932.17c-12.45,5.93-23.83,12.51-35.11,19.22-2.94,1.75-5.95,3.36-8.86,5.15-4.45,2.73-8.44,5.76-12.8,8.52-8.31,5.27-16.81,10.47-25.27,15.65-.29-.28-.38-.44-.33-.79,1.88-.82,3.66-1.86,5.25-2.87,24.36-15.49,47.93-32.01,76.14-44.98.28-.13,1.17-.5.98.1Z"/>
          <path class="st5" d="M1054.34,957.14c-2.82-.1-5.43-.35-8.2-.59,2.91-1.79,5.93-3.41,8.86-5.15l6.89.69c-4.17-.36-3.08,1.72-4.27,2.77-.19.17-.81-.02-1.31.4-.12.1.12.51,0,.59-.22.16-2.32.58-1.97,1.29Z"/>
          <path class="st5" d="M1032.68,972.2c-1.86-.14.15-1.59-3.94-1.29.94-.76,1.78-.17,2.95-.4.31-.78-1.49-.84-.16-1.49,2.06.44,3.37-.45,4.43-.59.78-.11,3.61.06,3.77,0,.23-.09.26-2.33,3.61-1.39,2.94.83-1.37,1.37-1.48,1.49-.73.83.67,1.31.66,1.39-.09.73-5.35.45-6.4.5-.82,1.11.87.64,1.15.89.65.59-4.17.92-4.59.89Z"/>
        </g>
        <g>
          <path class="st10" d="M920.04,931.77c15.05,9.89,29.96,19.87,44.82,29.88l-7.98.36c.29,1.76,1.82.77,2.8,1.09.31.1.49,1.1.84,1.27.29.14,6.33-.34,7.14-.72,1.33.9,2.6,1.82,3.92,2.72l-6.16.27c.93,1.66.79,3.78,4.48,3.44-.54.4-2.53.26-2.8.91-.62,1.49,1.68,1.38,2.38,1.54s-1,1.65,1.68,1.27l-.84-.36c1.97-.43,2.37.53,2.52.54,1.1.12,2.98-.16,3.92,0,.28.05,0,.45.28.54.26.08,1.09-.08,1.4,0s-.04.61.28.72c.55.2,3.77-.1,4.62,1.09.37.52-.27,1.11.14,1.27.52.2,3.55-.01,4.06-.54,1.72,1.11,3.59,2.15,5.32,3.26.2.44-1.07.71-1.4.72-.19,0-3.05-.31-3.64-.36-5.08-.47-13.09-2.04-17.93-3.26-6.87-1.73-15.1-4.7-20.73-7.79-5.76-3.16-10.69-7.54-14.85-11.59-7.02-9.24-11.55-17.32-17.65-26.62l.14-1.63c1.03.72,2.06,1.36,3.22,1.99Z"/>
          <path class="st7" d="M982.81,960.11c4.9,7.48,6.74,11.34,10.09,19.14l-11.77-7.4c.57.31,1.62.67,2.24.99.55-.34.4-4.1,0-4.51-.59-.62-2.32-.35-2.52-.54-.16-.15.17-1.26,0-1.44-.18-.2-.8.02-1.12-.18-.69-.43.78-.74-2.24-.36-.27-1.06.6-4.08-1.68-3.79l1.12.36c-.27.72.72,3.14.28,3.61-.22.23-2.66.06-2.66.81-.7.03-.34-.46-.42-.72.39-.29.42-.58.14-.9-.49-.05-.18.8-.14.9-.84.63-1.18-.84-1.26-.9-.03-.02-1.12.68-.98-.09.04-.24,1.21-.45.42-1.53-.04-.06-.81.1-.98-.09-.33-.37.36-3.16-.14-3.52l-1.54-.09,1.4.36-.42,4.06c-.81-.94-2.4-1.35-3.5-1.99-16.44-9.44-30.17-21.24-47.35-30.51-1.17-.63-2.19-1.27-3.22-1.99l-.14,1.63c-.84-1.28-2.02-2.79-3.36-3.88,23.39,6.78,49.03,12.55,64.44,26.9,1.94,1.81,3.44,3.86,5.32,5.69Z"/>
          <path class="st5" d="M969.54,965.09c5.27,3.55,10.61,7.13,15.97,10.62l-3.07.2c-.93-1.29-4.46-.96-5.07-1.18-.35-.13.04-.7-.31-.79s-1.25.09-1.54,0c-.32-.1,0-.54-.31-.59-1.04-.18-3.09.13-4.3,0-.17-.02-.6-1.06-2.76-.59l.92.39c-2.94.42-1.11-1.21-1.84-1.38s-3.29-.05-2.61-1.67c.3-.7,2.48-.54,3.07-.98-4.05.37-3.9-1.93-4.91-3.74l6.75-.3Z"/>
          <path class="st2" d="M964.93,960.76c5.02,3.17,10,7.58,15.35,10.42l12.9,8.06c.11.26-.12.72,0,.98h-.31c-1.9-1.2-3.95-2.34-5.83-3.54-.5-.32-1.04-.66-1.54-.98-5.36-3.5-10.69-7.07-15.97-10.62-1.45-.97-2.84-1.98-4.3-2.95-1.05-.7-2.01-1.45-3.07-2.16-16.29-10.87-32.63-21.71-49.13-32.45,18.83,10.11,33.88,22.96,51.89,33.24Z"/>
          <path class="st5" d="M962.17,959.98c1.06.71,2.02,1.46,3.07,2.16-.89.42-7.51.94-7.83.79-.39-.19-.58-1.27-.92-1.38-1.08-.34-2.75.74-3.07-1.18l8.75-.39Z"/>
          <path class="st5" d="M985.5,975.71c.5.32,1.03.66,1.54.98-.56.58-3.89.81-4.45.59-.45-.17.26-.81-.15-1.38l3.07-.2Z"/>
          <path class="st5" d="M974.02,965.93c.09.28-.31.83.45.8,0-.83,2.64-.64,2.87-.89.48-.52-.59-3.19-.3-3.98l-1.21-.4c2.46-.32,1.52,3.01,1.81,4.17,3.26-.42,1.68-.08,2.42.4.35.22,1.02-.02,1.21.2.18.21-.18,1.42,0,1.59.22.21,2.08-.09,2.72.6.43.46.6,4.59,0,4.97-.68-.35-1.8-.76-2.42-1.09-5.27-2.88-10.16-7.33-15.11-10.54,1.19.7,2.9,1.15,3.78,2.19l.45-4.47-1.51-.4,1.66.1c.54.4-.2,3.47.15,3.88.19.21,1.01.04,1.06.1.85,1.19-.41,1.42-.45,1.69-.14.85,1.02.07,1.06.1.09.07.45,1.68,1.36.99Z"/>
          <path class="st0" d="M972.61,964.89c-.04-.12-.38-1.04.15-.98.3.35.28.66-.15.98Z"/>
        </g>
      </g>
    </g>
  </g>
  <g id="Rectification_Tea_Leaf_left">
    <path class="st5" d="M915.22,929.75l2.03,2.46,1.16-1.23-5.37-3.46,2.18,2.23Z"/>
    <path class="st5" d="M930.03,937.65l8.75,1.23,6.81,2.98,10.74,13.16-3.94-2.3-22.36-15.07Z"/>
    <polygon class="st5" points="956.33 959.53 955.6 964.58 968.25 973.93 986.76 978.26 987.55 976.36 982.94 973.4 969.54 964.58 963.38 960.37 956.33 959.53"/>
    <polygon class="st5" points="968.98 957.16 979.05 961 979.73 967.01 982.04 967.01 982.94 968.81 974.54 966.26 972.67 965.7 969.5 963.41 968.98 957.16"/>
  </g>
</svg>